<svg xmlns="http://www.w3.org/2000/svg" xmlns:xlink="http://www.w3.org/1999/xlink" width="120" height="120"><path fill-rule="evenodd" clip-rule="evenodd" fill="#D2E3FC" d="M0 120h120V0H0z"/><defs><path id="a" d="M0 0h120v120H0z"/></defs><clipPath id="b"><use xlink:href="#a" overflow="visible"/></clipPath><path clip-path="url(#b)" fill-rule="evenodd" clip-rule="evenodd" fill="#E7F1FD" stroke="#4585F1" stroke-width="1.1" d="M-.5 61.8V-23h121V61.9a159 159 0 0 1-34.7 36 43 43 0 0 1-51.6 0A159.5 159.5 0 0 1-.4 62l-.1-.1z"/><path fill="none" stroke="#4285F4" stroke-width="1.6" stroke-linecap="round" stroke-linejoin="round" d="M27.9 52.5l17.6-7c2.5-1 5.2-1.6 8-1.6h13.1c2.7 0 5.4.5 8 1.6l17.6 7"/><path fill-rule="evenodd" clip-rule="evenodd" fill="#2A2C33" d="M84.8 52.1a149.6 149.6 0 0 0-49.6 0l1 1.2c5.6 5.3 16.8 5.6 23.6 5.6 6.8 0 18.3-.3 23.9-5.7l1.1-1z"/><defs><filter id="c" filterUnits="userSpaceOnUse" x="24.6" y="48.2" width="69.6" height="12.9"><feColorMatrix values="1 0 0 0 0 0 1 0 0 0 0 0 1 0 0 0 0 0 1 0"/></filter></defs><mask maskUnits="userSpaceOnUse" x="24.6" y="48.2" width="69.6" height="12.9" id="d"><path fill-rule="evenodd" clip-rule="evenodd" fill="#FFF" d="M84.8 52.1a149.6 149.6 0 0 0-49.6 0l1 1.2c5.6 5.3 16.8 5.6 23.6 5.6 6.8 0 18.3-.3 23.9-5.7l1.1-1z" filter="url(#c)"/></mask><path mask="url(#d)" fill-rule="evenodd" clip-rule="evenodd" fill="#FFF" stroke="#4585F1" stroke-width="1.1" d="M59.7 48.8c-10.9-.2-22.2 1.5-34 5 6.9 5.6 24.3 6.8 34 6.8s26.5-.4 33.4-6a110.8 110.8 0 0 0-33.4-5.9z"/><path fill="none" stroke="#4285F4" stroke-width="1.6" stroke-linecap="round" stroke-linejoin="round" d="M36 53.4c5 6.5 16.9 5.8 24 5.8s19.1.7 24-5.8"/><path fill="none" stroke="#2A2C33" stroke-width="2.1" stroke-linecap="round" d="M27.3 54.1a140.8 140.8 0 0 1 65.4 0"/><path fill="none" stroke="#4285F4" stroke-width="1.6" stroke-linecap="round" d="M77.1 11.2l-9.5 9.6c-4.2 4.2-11 4.2-15.2 0l-9.6-9.6"/><path fill-rule="evenodd" clip-rule="evenodd" fill="#6199F6" d="M60 76.6c3.3 0 6.4 1 9 2.5 1 .6 2.2-.6 1.5-1.5a13 13 0 0 0-21 0c-.7 1 .5 2.1 1.5 1.5 2.6-1.6 5.7-2.5 9-2.5"/></svg>